<?xml version="1.0" standalone="no"?><!DOCTYPE svg PUBLIC "-//W3C//DTD SVG 1.1//EN" "http://www.w3.org/Graphics/SVG/1.1/DTD/svg11.dtd"><svg t="1561953139251" class="icon" viewBox="0 0 1024 1024" version="1.1" xmlns="http://www.w3.org/2000/svg" p-id="4067" width="100" height="100" xmlns:xlink="http://www.w3.org/1999/xlink"><defs><style type="text/css"></style></defs><path d="M896 384c0-212.078-171.922-384-384-384-212.076 0-384 171.922-384 384 0 21.902 2.258 43.236 5.779 64.137l-0.385 0c0 0 14.605 239.896 378.605 575.863 364-335.967 378.607-575.863 378.607-575.863l-0.387 0C893.742 427.236 896 405.902 896 384zM512 513.033c-70.578 0-128-57.42-128-128s57.422-128 128-128c70.58 0 128 57.42 128 128S582.58 513.033 512 513.033z" p-id="4068" fill="#f70000"></path></svg>